<svg width="300" height="92" viewBox="0 0 300 92" fill="none" xmlns="http://www.w3.org/2000/svg">
<path d="M266.308 30.713H266.134C265.156 30.7131 264.218 31.0993 263.526 31.7868C262.835 32.4743 262.446 33.4067 262.446 34.379C262.446 35.3512 262.835 36.2836 263.526 36.9711C264.218 37.6586 265.156 38.0449 266.134 38.0449H266.308C267.286 38.0449 268.224 37.6586 268.916 36.9711C269.608 36.2836 269.996 35.3512 269.996 34.379C269.996 33.4067 269.608 32.4743 268.916 31.7868C268.224 31.0993 267.286 30.7131 266.308 30.713ZM263.076 60.9751H269.366V42.6221H263.076V60.9751ZM199.877 60.9751H218.34V54.7229H199.877V60.9751ZM253.316 53.6878V30.713H247.002V33.6866C244.658 31.9904 241.879 30.9895 238.987 30.8002C236.094 30.611 233.207 31.2411 230.66 32.6175C228.113 33.9938 226.011 36.0599 224.598 38.576C223.186 41.0921 222.519 43.9549 222.678 46.8321C222.836 49.7093 223.812 52.4829 225.492 54.831C227.172 57.1791 229.488 59.0053 232.17 60.0976C234.853 61.1899 237.792 61.5036 240.647 61.0022C243.501 60.5009 246.154 59.205 248.298 57.265C249.034 58.4035 250.046 59.3398 251.241 59.9882C252.436 60.6365 253.776 60.976 255.137 60.9755H257.953V55.3052H254.943C254.729 55.3053 254.518 55.2635 254.32 55.1822C254.123 55.1009 253.944 54.9818 253.792 54.8316C253.641 54.6814 253.521 54.5031 253.44 54.3068C253.358 54.1105 253.316 53.9002 253.316 53.6878ZM237.991 54.958C236.209 54.958 234.466 54.4327 232.984 53.4485C231.503 52.4643 230.348 51.0654 229.665 49.4287C228.983 47.792 228.805 45.991 229.153 44.2534C229.5 42.5159 230.359 40.9199 231.619 39.6671C232.879 38.4144 234.485 37.5613 236.233 37.2157C237.98 36.8701 239.792 37.0474 241.439 37.7253C243.085 38.4033 244.493 39.5513 245.483 41.0243C246.473 42.4973 247.002 44.2291 247.002 46.0007C246.999 48.3754 246.049 50.6522 244.359 52.3314C242.67 54.0106 240.38 54.9552 237.991 54.9579V54.958ZM73.8699 30.713C65.6099 30.713 58.89 37.5711 58.89 46.0007C58.89 54.4303 65.6099 61.2884 73.8699 61.2884C77.7251 61.2884 81.6149 60.1531 84.2765 57.7067L80.3834 53.1605C78.5351 54.6766 76.7194 55.2971 73.8701 55.2971C69.2646 55.2971 66.323 52.6566 65.3118 48.9963L88.5597 48.9969C88.753 48.0098 88.8503 47.0064 88.8504 46.0007C88.8502 37.5711 82.13 30.713 73.8699 30.713ZM65.2607 43.3352C65.7211 41.4204 66.8255 39.7193 68.3911 38.5134C69.9567 37.3075 71.8896 36.6693 73.8699 36.7042C75.8588 36.6405 77.8079 37.2676 79.3819 38.4778C80.9559 39.6881 82.0564 41.4057 82.4942 43.3352H65.2607ZM52.4991 52.229H52.497C51.2279 53.5401 49.5882 54.4372 47.7948 54.8015C46.0015 55.1658 44.1392 54.9803 42.4543 54.2693C40.7694 53.5583 39.3415 52.3555 38.3594 50.8201C37.3774 49.2847 36.8876 47.489 36.9549 45.6708C37.0194 43.9234 37.5955 42.2327 38.6127 40.8061C39.6298 39.3796 41.0437 38.2791 42.6809 37.6397C44.3181 37.0003 46.1075 36.8498 47.8295 37.2066C49.5515 37.5635 51.1313 38.4122 52.3752 39.6486H52.376L56.8405 35.2107C54.6847 33.0676 51.9358 31.6112 48.9441 31.027C45.9524 30.4428 42.8534 30.7574 40.0422 31.9306C37.2311 33.1039 34.835 35.0826 33.1595 37.6146C31.484 40.1466 30.6049 43.1172 30.6343 46.1477C30.6637 49.1782 31.6002 52.1314 33.3246 54.6308C35.0489 57.1302 37.4829 59.0627 40.3163 60.1818C43.1497 61.3009 46.2541 61.556 49.234 60.9146C52.2138 60.2732 54.934 58.7644 57.0478 56.5803V56.5795L52.4991 52.229ZM201.204 30.7132H197.149C194.882 30.7335 192.682 31.4774 190.873 32.8351V30.7213H184.559V60.9753H190.873L190.873 42.822C190.877 41.1084 191.564 39.466 192.784 38.2554C194.004 37.0448 195.658 36.3649 197.382 36.3649H201.204L201.204 30.7132ZM134.098 51.2337V42.7891H140.759V37.1281H134.098V30.713H127.784V50.462C127.784 51.8426 128.057 53.2097 128.589 54.4853C129.12 55.7608 129.899 56.9198 130.881 57.896C131.864 58.8723 133.03 59.6467 134.313 60.175C135.596 60.7034 136.971 60.9753 138.36 60.9753H144.149V55.2773H138.166C137.632 55.2773 137.103 55.1727 136.609 54.9695C136.116 54.7663 135.667 54.4684 135.289 54.093C134.912 53.7175 134.612 53.2717 134.408 52.7811C134.203 52.2905 134.098 51.7647 134.098 51.2337ZM107.531 30.7234C104.934 30.738 102.415 31.6011 100.36 33.1795V30.713H94.0444L94.0458 60.9751H100.36V43.5225C100.357 42.5848 100.541 41.6558 100.9 40.7887C101.259 39.9216 101.787 39.1335 102.453 38.4695C103.119 37.8055 103.911 37.2787 104.782 36.9192C105.653 36.5598 106.587 36.3748 107.531 36.3748C108.474 36.3748 109.408 36.5598 110.279 36.9192C111.151 37.2787 111.942 37.8055 112.608 38.4695C113.274 39.1335 113.802 39.9216 114.161 40.7887C114.52 41.6558 114.704 42.5848 114.701 43.5225V60.9753H121.016L121.015 44.0837C120.999 40.5376 119.572 37.1419 117.046 34.6384C114.519 32.135 111.098 30.7275 107.531 30.7234ZM162.862 30.713C154.602 30.713 147.882 37.5711 147.882 46.0007C147.882 54.4303 154.602 61.2884 162.862 61.2884C166.717 61.2884 170.607 60.1531 173.268 57.7067L169.375 53.1605C167.527 54.6766 165.711 55.2971 162.862 55.2971C158.256 55.2971 155.315 52.6566 154.304 48.9963L177.551 48.9969C177.745 48.0098 177.842 47.0064 177.842 46.0007C177.842 37.5711 171.122 30.713 162.862 30.713ZM154.252 43.3352C154.713 41.4204 155.817 39.7193 157.383 38.5134C158.949 37.3075 160.881 36.6693 162.862 36.7042C164.851 36.6405 166.8 37.2676 168.374 38.4778C169.948 39.6881 171.048 41.4057 171.486 43.3352H154.252Z" fill="#4A24AC"/>
</svg>
